<svg width="20" height="21" viewBox="0 0 20 21" fill="none" xmlns="http://www.w3.org/2000/svg">
<path d="M13.3333 10.5L6.66666 10.5" stroke="#121212" stroke-width="1.25" stroke-linecap="round" stroke-linejoin="round"/>
<path d="M4.16667 4.66602H15.8333C16.2754 4.66602 16.6993 4.84161 17.0118 5.15417C17.3244 5.46673 17.5 5.89065 17.5 6.33268V8.83268C17.058 8.83268 16.634 9.00828 16.3215 9.32084C16.0089 9.6334 15.8333 10.0573 15.8333 10.4993C15.8333 10.9414 16.0089 11.3653 16.3215 11.6779C16.634 11.9904 17.058 12.166 17.5 12.166V14.666C17.5 15.108 17.3244 15.532 17.0118 15.8445C16.6993 16.1571 16.2754 16.3327 15.8333 16.3327H4.16667C3.72464 16.3327 3.30072 16.1571 2.98816 15.8445C2.67559 15.532 2.5 15.108 2.5 14.666V12.166C2.94203 12.166 3.36595 11.9904 3.67851 11.6779C3.99107 11.3653 4.16667 10.9414 4.16667 10.4993C4.16667 10.0573 3.99107 9.6334 3.67851 9.32084C3.36595 9.00828 2.94203 8.83268 2.5 8.83268V6.33268C2.5 5.89065 2.67559 5.46673 2.98816 5.15417C3.30072 4.84161 3.72464 4.66602 4.16667 4.66602" stroke="#121212" stroke-width="1.25" stroke-linecap="round" stroke-linejoin="round"/>
</svg>
