<svg width="64" height="64" viewBox="0 0 64 64" fill="none" xmlns="http://www.w3.org/2000/svg">
<path fill-rule="evenodd" clip-rule="evenodd" d="M32 58.6663C41 58.6663 56 42.1279 56 29.0367C56 15.9455 45.2548 5.33301 32 5.33301C18.7452 5.33301 8 15.9455 8 29.0367C8 42.1279 23 58.6663 32 58.6663ZM32 37.333C36.4183 37.333 40 33.7513 40 29.333C40 24.9147 36.4183 21.333 32 21.333C27.5817 21.333 24 24.9147 24 29.333C24 33.7513 27.5817 37.333 32 37.333Z" fill="#141718"/>
<circle cx="32" cy="29.6514" r="20" fill="#141718"/>
<path d="M40 29.6514V35.6514C40 37.8605 38.2091 39.6514 36 39.6514H28C25.7909 39.6514 24 37.8605 24 35.6514V29.6514" stroke="#FEFEFE" stroke-width="1.5" stroke-linejoin="round"/>
<path d="M36.7689 19.6514H27.2315C25.4141 19.6514 23.7798 20.8961 23.1049 22.7944L22.3469 24.9262C22.1175 25.5716 21.9589 26.2621 22.1262 26.9262C22.5226 28.4991 23.8084 29.6514 25.3335 29.6514C27.1745 29.6514 28.6669 27.9724 28.6669 25.9014C28.6669 27.9724 30.1593 29.6514 32.0002 29.6514C33.8412 29.6514 35.3335 27.9724 35.3335 25.9014C35.3335 27.9724 36.8259 29.6514 38.6669 29.6514C40.192 29.6514 41.4778 28.4991 41.8742 26.9262C42.0415 26.2621 41.8829 25.5716 41.6535 24.9262L40.8955 22.7944C40.2206 20.8961 38.5863 19.6514 36.7689 19.6514Z" stroke="#FEFEFE" stroke-width="1.5" stroke-linejoin="round"/>
<path d="M29 36.6514C29 34.9945 30.3431 33.6514 32 33.6514C33.6569 33.6514 35 34.9945 35 36.6514V39.6514H29V36.6514Z" stroke="#FEFEFE" stroke-width="1.5" stroke-linejoin="round"/>
</svg>
