<svg width="16" height="16" viewBox="0 0 16 16" fill="none" xmlns="http://www.w3.org/2000/svg">
<path d="M14.012 9.89042L13.7666 10.5991L13.7666 10.5991L14.012 9.89042ZM14.012 6.10958L14.2574 6.81831L14.012 6.10958ZM1.98785 9.89042L2.23322 10.5991H2.23322L1.98785 9.89042ZM1.98785 6.10958L1.74248 6.81831H1.74248L1.98785 6.10958ZM10.5302 6.53033C10.8231 6.23744 10.8231 5.76256 10.5302 5.46967C10.2374 5.17678 9.76248 5.17678 9.46959 5.46967L10.5302 6.53033ZM5.46959 9.46967C5.1767 9.76256 5.1767 10.2374 5.46959 10.5303C5.76248 10.8232 6.23736 10.8232 6.53025 10.5303L5.46959 9.46967ZM3.99992 13.25C2.94137 13.25 2.08325 12.3919 2.08325 11.3333H0.583252C0.583252 13.2203 2.11295 14.75 3.99992 14.75V13.25ZM13.9166 11.3333C13.9166 12.3919 13.0585 13.25 11.9999 13.25V14.75C13.8869 14.75 15.4166 13.2203 15.4166 11.3333H13.9166ZM11.9999 2.75C13.0585 2.75 13.9166 3.60812 13.9166 4.66667H15.4166C15.4166 2.77969 13.8869 1.25 11.9999 1.25V2.75ZM3.99992 1.25C2.11295 1.25 0.583252 2.77969 0.583252 4.66667H2.08325C2.08325 3.60812 2.94137 2.75 3.99992 2.75V1.25ZM14.2574 9.18169C13.767 9.01191 13.4166 8.54591 13.4166 8H11.9166C11.9166 9.20473 12.6908 10.2267 13.7666 10.5991L14.2574 9.18169ZM13.4166 8C13.4166 7.45409 13.767 6.98809 14.2574 6.81831L13.7666 5.40086C12.6908 5.77332 11.9166 6.79527 11.9166 8H13.4166ZM2.58325 8C2.58325 8.54591 2.23286 9.01191 1.74247 9.18169L2.23322 10.5991C3.30902 10.2267 4.08325 9.20473 4.08325 8H2.58325ZM1.74248 6.81831C2.23286 6.98809 2.58325 7.45409 2.58325 8H4.08325C4.08325 6.79527 3.30902 5.77332 2.23322 5.40086L1.74248 6.81831ZM15.4166 5.33333V4.66667H13.9166V5.33333H15.4166ZM13.9166 10.6667V11.3333H15.4166V10.6667H13.9166ZM0.583252 10.6667V11.3333H2.08325V10.6667H0.583252ZM2.08325 5.33333V4.66667H0.583252V5.33333H2.08325ZM11.9999 13.25H3.99992V14.75H11.9999V13.25ZM11.9999 1.25H3.99992V2.75H11.9999V1.25ZM1.74248 9.18169C1.23776 9.35643 0.583252 9.84831 0.583252 10.6667H2.08325C2.08325 10.6809 2.07989 10.6932 2.07709 10.6998C2.07488 10.705 2.07571 10.7005 2.08656 10.6885C2.11136 10.661 2.16268 10.6236 2.23322 10.5991L1.74248 9.18169ZM14.2574 6.81831C14.7621 6.64357 15.4166 6.15169 15.4166 5.33333H13.9166C13.9166 5.31907 13.92 5.30681 13.9227 5.30022C13.925 5.29499 13.9241 5.29953 13.9133 5.31154C13.8885 5.33899 13.8372 5.37643 13.7666 5.40086L14.2574 6.81831ZM2.23322 5.40086C2.16268 5.37643 2.11136 5.33899 2.08656 5.31154C2.07571 5.29953 2.07488 5.29499 2.07709 5.30022C2.07989 5.30681 2.08325 5.31907 2.08325 5.33333H0.583252C0.583252 6.15169 1.23776 6.64357 1.74248 6.81831L2.23322 5.40086ZM13.7666 10.5991C13.8372 10.6236 13.8885 10.661 13.9133 10.6885C13.9241 10.7005 13.925 10.705 13.9227 10.6998C13.92 10.6932 13.9166 10.6809 13.9166 10.6667H15.4166C15.4166 9.84831 14.7621 9.35643 14.2574 9.18169L13.7666 10.5991ZM5.91659 6C5.91659 5.95398 5.9539 5.91667 5.99992 5.91667V7.41667C6.78232 7.41667 7.41659 6.7824 7.41659 6H5.91659ZM5.99992 5.91667C6.04594 5.91667 6.08325 5.95398 6.08325 6H4.58325C4.58325 6.7824 5.21752 7.41667 5.99992 7.41667V5.91667ZM6.08325 6C6.08325 6.04602 6.04594 6.08333 5.99992 6.08333V4.58333C5.21752 4.58333 4.58325 5.2176 4.58325 6H6.08325ZM5.99992 6.08333C5.9539 6.08333 5.91659 6.04602 5.91659 6H7.41659C7.41659 5.2176 6.78232 4.58333 5.99992 4.58333V6.08333ZM9.91659 10C9.91659 9.95398 9.9539 9.91667 9.99992 9.91667V11.4167C10.7823 11.4167 11.4166 10.7824 11.4166 10H9.91659ZM9.99992 9.91667C10.0459 9.91667 10.0833 9.95398 10.0833 10H8.58325C8.58325 10.7824 9.21752 11.4167 9.99992 11.4167V9.91667ZM10.0833 10C10.0833 10.046 10.0459 10.0833 9.99992 10.0833V8.58333C9.21752 8.58333 8.58325 9.2176 8.58325 10H10.0833ZM9.99992 10.0833C9.9539 10.0833 9.91659 10.046 9.91659 10H11.4166C11.4166 9.2176 10.7823 8.58333 9.99992 8.58333V10.0833ZM9.46959 5.46967L5.46959 9.46967L6.53025 10.5303L10.5302 6.53033L9.46959 5.46967Z" fill="#141718"/>
</svg>
